<?xml version="1.0" encoding="utf-8"?>
<!-- Generator: Adobe Illustrator 22.1.0, SVG Export Plug-In . SVG Version: 6.00 Build 0)  -->
<svg version="1.1" xmlns="http://www.w3.org/2000/svg" xmlns:xlink="http://www.w3.org/1999/xlink" x="0px" y="0px"
	 viewBox="0 0 1920 1080" style="enable-background:new 0 0 1920 1080;" xml:space="preserve">
<style type="text/css">
	.st0{fill:#E0E0E0;}
	.st1{display:none;}
	.st2{display:inline;}
	.st3{clip-path:url(#SVGID_2_);}
	.st4{clip-path:url(#SVGID_4_);fill-rule:evenodd;clip-rule:evenodd;fill:#00AEEF;}
	.st5{clip-path:url(#SVGID_6_);}
	.st6{clip-path:url(#SVGID_8_);fill-rule:evenodd;clip-rule:evenodd;fill:#FFFFFF;}
	.st7{fill:#E0722D;}
	.st8{clip-path:url(#SVGID_10_);fill:#00AEEF;}
	.st9{clip-path:url(#SVGID_10_);}
	.st10{clip-path:url(#SVGID_12_);fill:#00AEEF;}
	.st11{fill:#222222;}
</style>
<g id="Layer_4">
	<rect class="st0" width="1920" height="1080"/>
</g>
<g id="Layer_1" class="st1">
	<g id="Ellipse_1_1_" class="st2">
		<g>
			<defs>
				<rect id="SVGID_1_" x="629.5" y="69.5" width="661" height="661"/>
			</defs>
			<clipPath id="SVGID_2_">
				<use xlink:href="#SVGID_1_"  style="overflow:visible;"/>
			</clipPath>
			<g class="st3">
				<defs>
					<rect id="SVGID_3_" x="629.5" y="69.5" width="661" height="661"/>
				</defs>
				<clipPath id="SVGID_4_">
					<use xlink:href="#SVGID_3_"  style="overflow:visible;"/>
				</clipPath>
				<path class="st4" d="M960,69.5c-182.5,0-330.5,148-330.5,330.5s148,330.5,330.5,330.5s330.5-148,330.5-330.5
					S1142.5,69.5,960,69.5"/>
			</g>
		</g>
	</g>
	<g id="Ellipse_1_copy_1_" class="st2">
		<g>
			<defs>
				<rect id="SVGID_5_" x="670" y="110" width="580" height="580"/>
			</defs>
			<clipPath id="SVGID_6_">
				<use xlink:href="#SVGID_5_"  style="overflow:visible;"/>
			</clipPath>
			<g class="st5">
				<defs>
					<rect id="SVGID_7_" x="670" y="110" width="580" height="580"/>
				</defs>
				<clipPath id="SVGID_8_">
					<use xlink:href="#SVGID_7_"  style="overflow:visible;"/>
				</clipPath>
				<path class="st6" d="M960,110c-160.2,0-290,129.8-290,290s129.8,290,290,290s290-129.8,290-290S1120.2,110,960,110"/>
			</g>
		</g>
	</g>
</g>
<g id="Layer_7">
	<circle class="st7" cx="959.5" cy="399.5" r="330.5"/>
</g>
<g id="Layer_5">
	<circle class="st0" cx="960" cy="400" r="290"/>
</g>
<g id="Layer_2" class="st1">
	<g id="Artwork_1_1_" class="st2">
		<g>
			<defs>
				<rect id="SVGID_9_" x="567" y="819" width="786" height="83.9"/>
			</defs>
			<clipPath id="SVGID_10_">
				<use xlink:href="#SVGID_9_"  style="overflow:visible;"/>
			</clipPath>
			<polygon class="st8" points="567,820 567,825.8 599.5,825.8 599.5,901.9 605.3,901.9 605.3,825.8 637.7,825.8 637.7,820 			"/>
			<rect x="657.5" y="820" class="st8" width="5.7" height="81.9"/>
			<g class="st9">
				<defs>
					<rect id="SVGID_11_" x="567" y="819" width="786" height="83.9"/>
				</defs>
				<clipPath id="SVGID_12_">
					<use xlink:href="#SVGID_11_"  style="overflow:visible;"/>
				</clipPath>
				<path class="st10" d="M754.6,901.9H725c-7.5,0-14.4-1.8-20.7-5.5c-6.3-3.7-11.3-8.7-15-15.1c-3.7-6.3-5.5-13.3-5.5-20.9
					c0-7.5,1.8-14.4,5.5-20.7c3.7-6.3,8.7-11.4,15-15.1c6.3-3.7,13.2-5.6,20.7-5.6c5.7,0,11.2,1.2,16.4,3.5
					c5.3,2.4,9.8,5.6,13.7,9.8l-4.2,3.9c-3.4-3.6-7.3-6.4-11.8-8.4s-9.2-3-14.1-3c-6.4,0-12.3,1.6-17.8,4.8
					c-5.5,3.2-9.8,7.5-13,12.9c-3.2,5.4-4.8,11.4-4.8,17.8c0,6.5,1.6,12.4,4.8,17.9c3.2,5.5,7.5,9.8,13,13
					c5.5,3.2,11.4,4.9,17.8,4.9h23.7v-29.4h-27v-5.7h32.9V901.9z"/>
				<polygon class="st10" points="778.8,901.9 778.8,820 831.9,820 831.9,825.8 784.5,825.8 784.5,858.1 821.4,858.1 821.4,863.9 
					784.5,863.9 784.5,896 831.9,896 831.9,901.9 				"/>
				<path class="st10" d="M901.8,901.9l-34-41.3h10.1c6.2,0,11.3-0.8,15.1-2.4c2.9-1.3,5.3-3.4,7.4-6.1c2.1-2.7,3.2-5.7,3.2-9
					c0-2.9-0.9-5.7-2.6-8.4c-1.8-2.6-4.3-4.8-7.6-6.5c-3.3-1.7-7.1-2.5-11.3-2.5h-22.9v76.2h-5.7V820h28.6c3.9,0,7.5,0.6,10.8,1.8
					c3.4,1.2,6.3,3,8.8,5.2c2.4,2.2,4.3,4.7,5.6,7.4c1.3,2.8,2,5.6,2,8.6c0,4.6-1.4,8.8-4.2,12.4c-2.8,3.7-6,6.3-9.8,7.9
					c-2.6,1.2-5.1,1.9-7.6,2.2c-2.5,0.3-5.1,0.4-7.9,0.4l29.6,35.9H901.8z"/>
				<polygon class="st10" points="1039.2,820 1039.2,825.8 1006.8,825.8 1006.8,901.9 1001,901.9 1001,825.8 968.5,825.8 968.5,820 
									"/>
				<polygon class="st10" points="1057.5,901.9 1057.5,820 1110.5,820 1110.5,825.8 1063.1,825.8 1063.1,858.1 1100.1,858.1 
					1100.1,863.9 1063.1,863.9 1063.1,896 1110.5,896 1110.5,901.9 				"/>
				<polygon class="st10" points="1194.1,820 1164.8,861 1194.1,901.9 1187.2,901.9 1161.4,865.8 1135.7,901.9 1128.8,901.9 
					1158,861 1128.8,820 1135.7,820 1161.4,856.2 1187.2,820 				"/>
				<polygon class="st10" points="1278.5,820 1278.5,825.8 1246.1,825.8 1246.1,901.9 1240.3,901.9 1240.3,825.8 1207.8,825.8 
					1207.8,820 				"/>
				<path class="st10" d="M1349.8,870.2c2.1,3.2,3.2,6.5,3.2,10.1c0,3.1-0.8,6.1-2.3,8.9c-1.5,2.8-3.7,5.3-6.6,7.4
					c-5.9,4.2-12.7,6.3-20.5,6.3c-3.9,0-7.6-0.5-11.1-1.6c-3.5-1.1-6.7-2.6-9.5-4.7c-4.8-3.5-7.7-7.9-8.7-13l5.4-3
					c0.3,4.6,2.5,8.4,6.8,11.3c2.2,1.7,4.7,3,7.7,3.8c2.9,0.9,6,1.3,9.3,1.3c6.7,0,12.4-1.7,17-5.2c4.5-3.3,6.7-7.1,6.7-11.6
					c0-2.6-0.8-5-2.5-7.3c-1.6-2.3-3.9-4.2-6.9-5.8c-2.8-1.4-7.7-2.6-14.9-3.4c-0.6-0.1-2.7-0.4-6.4-1c-3.7-0.6-6.8-1.5-9.4-2.8
					c-4.1-2-7.4-4.7-9.7-8s-3.5-6.9-3.5-10.8c0-3.1,0.8-6,2.3-8.8c1.6-2.7,3.8-5.1,6.6-7.2c2.8-2,5.9-3.6,9.5-4.7
					c3.5-1.1,7.2-1.6,11.1-1.6c7.8,0,14.7,2.1,20.5,6.3c4.9,3.7,7.7,8,8.6,12.9l-5.4,3c-0.1-2.1-0.7-4.1-1.8-6.1
					c-1.1-1.9-2.8-3.7-4.9-5.3c-2.3-1.7-4.9-3-7.8-3.8c-2.9-0.9-6-1.3-9.2-1.3c-3.2,0-6.3,0.4-9.3,1.3c-3,0.9-5.6,2.2-7.8,3.8
					c-2.2,1.6-3.9,3.4-5,5.4c-1.2,2-1.8,4-1.8,6.1c0,2.6,1,5.2,2.9,7.8c1.9,2.6,4.3,4.6,7.2,6c1.8,0.8,3.7,1.4,5.9,1.8
					c2.1,0.4,4.9,0.8,8.3,1.2c0.6,0.1,2.1,0.3,4.4,0.6c2.4,0.3,4.6,0.8,6.8,1.4c2.2,0.6,4,1.3,5.5,2.1
					C1344.6,864.4,1347.6,867.1,1349.8,870.2"/>
			</g>
		</g>
	</g>
</g>
<g id="Layer_6">
	<g>
		<path class="st11" d="M636.3,819v5.8h-32.4v76.1h-5.8v-76.1h-32.5V819H636.3z"/>
		<path class="st11" d="M656,900.9V819h5.7v81.9H656z"/>
		<path class="st11" d="M753.2,900.9h-29.6c-7.5,0-14.4-1.8-20.7-5.5c-6.3-3.7-11.3-8.7-15-15.1c-3.7-6.3-5.5-13.3-5.5-20.9
			c0-7.5,1.8-14.4,5.5-20.7c3.7-6.3,8.7-11.4,15-15.1c6.3-3.7,13.2-5.6,20.7-5.6c5.7,0,11.2,1.2,16.4,3.5c5.2,2.4,9.8,5.6,13.7,9.8
			l-4.2,3.9c-3.4-3.6-7.3-6.4-11.8-8.4c-4.5-2-9.2-3-14.1-3c-6.4,0-12.3,1.6-17.8,4.8c-5.5,3.2-9.8,7.5-13,12.9
			c-3.2,5.4-4.8,11.4-4.8,17.8c0,6.5,1.6,12.4,4.8,17.9c3.2,5.5,7.5,9.8,13,13c5.5,3.2,11.4,4.9,17.8,4.9h23.7v-29.4h-27v-5.7h32.9
			V900.9z"/>
		<path class="st11" d="M777.4,900.9V819h53v5.8H783v32.3H820v5.8H783V895h47.4v5.9H777.4z"/>
		<path class="st11" d="M900.3,900.9l-34-41.3h10.1c6.2,0,11.3-0.8,15.1-2.4c2.9-1.3,5.3-3.4,7.4-6.1c2.1-2.7,3.2-5.7,3.2-9
			c0-2.9-0.9-5.7-2.6-8.4c-1.8-2.6-4.3-4.8-7.6-6.5c-3.3-1.7-7.1-2.5-11.3-2.5h-22.9v76.2H852V819h28.6c3.9,0,7.5,0.6,10.8,1.8
			c3.4,1.2,6.3,3,8.8,5.2c2.4,2.2,4.3,4.7,5.6,7.4c1.3,2.8,2,5.6,2,8.6c0,4.6-1.4,8.8-4.2,12.4c-2.8,3.7-6,6.3-9.8,7.9
			c-2.6,1.2-5.1,1.9-7.6,2.2c-2.5,0.3-5.1,0.4-7.9,0.4l29.6,35.9H900.3z"/>
		<path class="st11" d="M1037.7,819v5.8h-32.4v76.1h-5.8v-76.1H967V819H1037.7z"/>
		<path class="st11" d="M1055.9,900.9V819h53v5.8h-47.4v32.3h36.9v5.8h-36.9V895h47.4v5.9H1055.9z"/>
		<path class="st11" d="M1192.5,819l-29.2,41l29.2,41h-6.9l-25.7-36.2l-25.7,36.2h-6.9l29.2-41l-29.2-41h6.9l25.7,36.2l25.7-36.2
			H1192.5z"/>
		<path class="st11" d="M1276.9,819v5.8h-32.4v76.1h-5.8v-76.1h-32.5V819H1276.9z"/>
		<path class="st11" d="M1348.2,869.2c2.1,3.2,3.2,6.5,3.2,10.1c0,3.1-0.8,6.1-2.3,8.9c-1.5,2.8-3.7,5.3-6.6,7.4
			c-5.9,4.2-12.7,6.3-20.5,6.3c-3.9,0-7.6-0.5-11.1-1.6c-3.5-1.1-6.7-2.6-9.5-4.7c-4.8-3.5-7.7-7.9-8.7-13l5.4-3
			c0.3,4.6,2.5,8.4,6.8,11.3c2.2,1.7,4.7,3,7.7,3.8c2.9,0.9,6,1.3,9.3,1.3c6.7,0,12.4-1.7,17-5.2c4.5-3.3,6.7-7.1,6.7-11.6
			c0-2.6-0.8-5-2.5-7.3c-1.6-2.3-3.9-4.2-6.9-5.8c-2.8-1.4-7.7-2.6-14.9-3.4c-0.6-0.1-2.7-0.4-6.4-1c-3.7-0.6-6.8-1.5-9.4-2.8
			c-4.1-2-7.4-4.7-9.7-8c-2.4-3.3-3.5-6.9-3.5-10.8c0-3.1,0.8-6,2.3-8.8c1.6-2.7,3.8-5.1,6.6-7.2c2.8-2,5.9-3.6,9.5-4.7
			c3.5-1.1,7.2-1.6,11.1-1.6c7.8,0,14.7,2.1,20.5,6.3c4.9,3.7,7.7,8,8.6,12.9l-5.4,3c-0.1-2.1-0.7-4.1-1.8-6
			c-1.1-1.9-2.8-3.7-4.9-5.3c-2.3-1.7-4.9-3-7.8-3.8c-2.9-0.9-6-1.3-9.2-1.3c-3.2,0-6.3,0.4-9.3,1.3c-3,0.9-5.6,2.2-7.7,3.8
			c-2.2,1.6-3.9,3.4-5,5.4c-1.2,2-1.8,4-1.8,6.1c0,2.6,1,5.2,2.9,7.7c1.9,2.6,4.3,4.6,7.2,6c1.8,0.8,3.7,1.4,5.9,1.8
			c2.1,0.4,4.9,0.8,8.3,1.2c0.6,0.1,2.1,0.3,4.4,0.6c2.4,0.3,4.6,0.8,6.8,1.4c2.2,0.6,4,1.3,5.5,2.1
			C1343.1,863.4,1346.1,866.1,1348.2,869.2z"/>
	</g>
</g>
<g id="Layer_3">
	<path class="st7" d="M947,607.9c6.2-65,9.6-128.2-2.8-203.3c32.8-31.4,143.1-126.8,223.5-149.6c-20.7,79.6-46.6,218-68.2,283.7
		C1032.3,538.7,947,607.9,947,607.9z"/>
	<path class="st11" d="M942.2,607.7c0,0,10.5-120-26.9-206.7c-47.1-60.8-120.3-83.7-172.7-96.8c56.8,121.6,91.7,180.1,110.2,247.5
		C898.7,566.5,914.7,579.7,942.2,607.7z"/>
</g>
</svg>
